<svg width="1788" height="330" viewBox="0 0 1788 330" fill="none" xmlns="http://www.w3.org/2000/svg">
<path d="M264.65 198.25C264.65 211.5 263.86 224.5 262.28 235C261.095 241.75 252.405 247.25 241.74 247.5C185.983 250 130.017 250 74.26 247.5C63.595 247.25 54.51 241.75 53.72 235C52.14 224.5 51.35 211.25 51.35 198.25V140.5C88.48 141.5 125.61 166.75 136.67 176.5L158 195.25L179.33 176.5C190.39 166.5 227.52 141.5 264.65 140.5V198.25Z" fill="black"/>
<path d="M145.164 159.832L126.102 154.301C124.102 153.738 122.977 151.645 123.539 149.645L166.195 2.70713C166.758 0.707133 168.852 -0.417867 170.852 0.144633L189.914 5.67588C191.914 6.23838 193.039 8.33213 192.477 10.3321L149.82 157.27C149.227 159.27 147.164 160.426 145.164 159.832ZM109.539 124.77L123.133 110.27C124.57 108.738 124.477 106.301 122.883 104.895L94.5703 79.9884L122.883 55.0821C124.477 53.6759 124.602 51.2384 123.133 49.7071L109.539 35.2071C108.133 33.7071 105.758 33.6134 104.227 35.0509L59.1953 77.2384C57.6016 78.7071 57.6016 81.2384 59.1953 82.7071L104.227 124.926C105.758 126.363 108.133 126.301 109.539 124.77ZM211.789 124.957L256.82 82.7384C258.414 81.2696 258.414 78.7384 256.82 77.2696L211.789 35.0196C210.289 33.6134 207.914 33.6759 206.477 35.1759L192.883 49.6759C191.445 51.2071 191.539 53.6446 193.133 55.0509L221.445 79.9884L193.133 104.895C191.539 106.301 191.414 108.738 192.883 110.27L206.477 124.77C207.883 126.301 210.258 126.363 211.789 124.957Z" fill="black"/>
<path d="M365.951 243.538C352.719 243.538 342.147 240.511 334.237 234.456C326.376 228.401 322.274 219.49 321.933 207.723H344.271C344.662 213.191 346.811 217.317 350.717 220.101C354.672 222.835 359.652 224.202 365.658 224.202C371.518 224.202 376.205 222.957 379.721 220.467C383.285 217.977 385.067 214.729 385.067 210.726C385.067 207.063 383.456 204.256 380.233 202.303C377.011 200.301 372.421 198.592 366.464 197.176L354.525 194.246C345.346 192.049 338.095 188.558 332.772 183.772C327.499 178.938 324.862 172.493 324.862 164.437C324.862 157.845 326.645 152.083 330.209 147.151C333.773 142.171 338.656 138.313 344.857 135.579C351.107 132.796 358.212 131.404 366.171 131.404C374.276 131.404 381.356 132.796 387.411 135.579C393.466 138.362 398.178 142.22 401.547 147.151C404.965 152.083 406.723 157.771 406.82 164.217H384.555C384.164 159.969 382.357 156.648 379.135 154.256C375.912 151.863 371.542 150.667 366.024 150.667C360.409 150.667 356.088 151.839 353.061 154.183C350.033 156.478 348.52 159.407 348.52 162.972C348.52 166.829 350.204 169.759 353.573 171.761C356.942 173.714 360.995 175.252 365.731 176.375L375.473 178.792C381.82 180.208 387.46 182.283 392.392 185.018C397.323 187.703 401.205 191.17 404.037 195.418C406.869 199.617 408.285 204.744 408.285 210.799C408.285 220.809 404.55 228.768 397.079 234.676C389.608 240.584 379.232 243.538 365.951 243.538ZM423.373 132.869H446.078V191.243H447.323L473.471 160.115H499.545L469.223 195.638L501.01 242H474.496L452.23 208.968L446.078 215.926V242H423.373V132.869ZM510.678 242V160.115H533.383V242H510.678ZM522.03 149.642C518.661 149.642 515.756 148.519 513.314 146.272C510.922 144.026 509.726 141.316 509.726 138.143C509.726 134.969 510.922 132.283 513.314 130.086C515.756 127.84 518.661 126.717 522.03 126.717C525.399 126.717 528.28 127.84 530.673 130.086C533.114 132.283 534.335 134.969 534.335 138.143C534.335 141.316 533.114 144.026 530.673 146.272C528.28 148.519 525.399 149.642 522.03 149.642ZM574.252 132.869V242H551.547V132.869H574.252ZM615.121 132.869V242H592.416V132.869H615.121ZM674.154 243.538C660.922 243.538 650.351 240.511 642.44 234.456C634.579 228.401 630.478 219.49 630.136 207.723H652.475C652.865 213.191 655.014 217.317 658.92 220.101C662.875 222.835 667.855 224.202 673.861 224.202C679.721 224.202 684.408 222.957 687.924 220.467C691.488 217.977 693.271 214.729 693.271 210.726C693.271 207.063 691.659 204.256 688.437 202.303C685.214 200.301 680.624 198.592 674.667 197.176L662.729 194.246C653.549 192.049 646.298 188.558 640.976 183.772C635.702 178.938 633.065 172.493 633.065 164.437C633.065 157.845 634.848 152.083 638.412 147.151C641.977 142.171 646.859 138.313 653.061 135.579C659.311 132.796 666.415 131.404 674.374 131.404C682.479 131.404 689.56 132.796 695.614 135.579C701.669 138.362 706.381 142.22 709.75 147.151C713.168 152.083 714.926 157.771 715.023 164.217H692.758C692.367 159.969 690.561 156.648 687.338 154.256C684.115 151.863 679.745 150.667 674.228 150.667C668.612 150.667 664.291 151.839 661.264 154.183C658.236 156.478 656.723 159.407 656.723 162.972C656.723 166.829 658.407 169.759 661.776 171.761C665.146 173.714 669.198 175.252 673.935 176.375L683.676 178.792C690.023 180.208 695.663 182.283 700.595 185.018C705.526 187.703 709.408 191.17 712.24 195.418C715.072 199.617 716.488 204.744 716.488 210.799C716.488 220.809 712.753 228.768 705.282 234.676C697.812 240.584 687.436 243.538 674.154 243.538ZM754.281 194.686V242H731.576V132.869H753.549V174.69H754.574C756.43 169.856 759.408 166.048 763.51 163.265C767.66 160.481 772.836 159.09 779.037 159.09C787.533 159.09 794.369 161.824 799.545 167.293C804.721 172.762 807.309 180.306 807.309 189.925V242H784.677V193.953C784.677 188.875 783.407 184.944 780.868 182.161C778.329 179.329 774.691 177.913 769.955 177.913C765.365 177.913 761.605 179.402 758.676 182.381C755.746 185.311 754.281 189.412 754.281 194.686ZM848.837 243.538C841.024 243.538 834.53 241.512 829.354 237.459C824.228 233.357 821.664 227.254 821.664 219.148C821.664 213.045 823.08 208.26 825.912 204.793C828.793 201.277 832.577 198.714 837.265 197.103C841.952 195.442 846.981 194.368 852.353 193.88C859.481 193.196 864.56 192.488 867.587 191.756C870.663 190.975 872.201 189.266 872.201 186.629V186.263C872.201 182.894 871.127 180.281 868.979 178.426C866.83 176.57 863.729 175.643 859.677 175.643C855.624 175.643 852.304 176.521 849.716 178.279C847.177 180.037 845.492 182.283 844.662 185.018L824.008 181.722C825.961 174.593 830.062 169.051 836.312 165.096C842.611 161.092 850.424 159.09 859.75 159.09C865.805 159.09 871.493 160.042 876.815 161.946C882.187 163.851 886.532 166.854 889.853 170.955C893.173 175.008 894.833 180.281 894.833 186.775V242H873.373V230.574H872.714C870.712 234.432 867.733 237.557 863.778 239.949C859.872 242.342 854.892 243.538 848.837 243.538ZM843.271 218.416C843.271 221.541 844.394 223.909 846.64 225.521C848.935 227.083 851.815 227.864 855.282 227.864C860.263 227.864 864.34 226.424 867.514 223.543C870.736 220.662 872.348 217.073 872.348 212.776V204.061C871.469 204.646 870.077 205.184 868.173 205.672C866.317 206.16 864.34 206.575 862.24 206.917C860.141 207.21 858.261 207.479 856.601 207.723C852.597 208.309 849.374 209.456 846.933 211.165C844.491 212.825 843.271 215.242 843.271 218.416ZM913.07 242V160.115H935.043V174.471H935.922C937.387 169.393 939.877 165.56 943.393 162.972C946.908 160.335 950.961 159.017 955.551 159.017C956.674 159.017 957.895 159.09 959.213 159.236C960.531 159.383 961.679 159.578 962.655 159.822V179.891C961.581 179.549 960.092 179.28 958.188 179.085C956.332 178.841 954.623 178.719 953.061 178.719C948.08 178.719 943.954 180.306 940.683 183.479C937.411 186.604 935.775 190.682 935.775 195.711V242H913.07ZM1011.73 243.611C1003.33 243.611 996.103 241.902 990.048 238.484C983.993 235.066 979.33 230.208 976.059 223.909C972.787 217.562 971.151 210.066 971.151 201.424C971.151 193.025 972.763 185.652 975.985 179.305C979.257 172.957 983.847 168.001 989.755 164.437C995.663 160.872 1002.62 159.09 1010.63 159.09C1017.86 159.09 1024.37 160.628 1030.18 163.704C1036.04 166.78 1040.68 171.395 1044.1 177.547C1047.57 183.699 1049.3 191.414 1049.3 200.691V206.844H993.49C993.734 213.045 995.541 217.903 998.91 221.419C1002.28 224.935 1006.67 226.692 1012.09 226.692C1015.85 226.692 1019.08 225.887 1021.76 224.275C1024.5 222.664 1026.45 220.32 1027.62 217.244L1048.57 218.636C1046.96 226.155 1042.93 232.21 1036.48 236.8C1030.09 241.341 1021.83 243.611 1011.73 243.611ZM993.637 192.854H1027.55C1027.01 187.679 1025.35 183.577 1022.57 180.55C1019.78 177.522 1015.88 176.009 1010.85 176.009C1005.77 176.009 1001.74 177.596 998.764 180.77C995.834 183.895 994.125 187.923 993.637 192.854ZM1118.29 242H1093.54L1131.26 132.869H1160.92L1198.57 242H1173.89L1165.76 217.098H1126.35L1118.29 242ZM1132.21 199.08H1159.9L1146.49 157.771H1145.61L1132.21 199.08ZM1248.08 243.611C1239.68 243.611 1232.48 241.829 1226.47 238.265C1220.47 234.7 1215.85 229.744 1212.63 223.396C1209.46 217.049 1207.87 209.725 1207.87 201.424C1207.87 193.025 1209.48 185.652 1212.7 179.305C1215.98 172.957 1220.61 168.001 1226.62 164.437C1232.63 160.872 1239.75 159.09 1248.01 159.09C1255.14 159.09 1261.39 160.384 1266.76 162.972C1272.13 165.56 1276.38 169.197 1279.5 173.885C1282.63 178.572 1284.33 184.09 1284.63 190.438H1263.24C1262.61 186.385 1261.02 183.113 1258.48 180.623C1255.94 178.084 1252.57 176.814 1248.37 176.814C1243.1 176.814 1238.88 178.938 1235.7 183.187C1232.53 187.386 1230.94 193.367 1230.94 201.131C1230.94 208.943 1232.5 215.022 1235.63 219.368C1238.8 223.714 1243.05 225.887 1248.37 225.887C1252.28 225.887 1255.58 224.666 1258.26 222.225C1260.95 219.783 1262.61 216.365 1263.24 211.971H1284.63C1284.29 218.221 1282.6 223.738 1279.57 228.523C1276.55 233.26 1272.35 236.971 1266.98 239.656C1261.65 242.293 1255.36 243.611 1248.08 243.611ZM1322.71 243.538C1314.9 243.538 1308.41 241.512 1303.23 237.459C1298.1 233.357 1295.54 227.254 1295.54 219.148C1295.54 213.045 1296.96 208.26 1299.79 204.793C1302.67 201.277 1306.45 198.714 1311.14 197.103C1315.83 195.442 1320.86 194.368 1326.23 193.88C1333.36 193.196 1338.44 192.488 1341.46 191.756C1344.54 190.975 1346.08 189.266 1346.08 186.629V186.263C1346.08 182.894 1345 180.281 1342.86 178.426C1340.71 176.57 1337.61 175.643 1333.55 175.643C1329.5 175.643 1326.18 176.521 1323.59 178.279C1321.05 180.037 1319.37 182.283 1318.54 185.018L1297.88 181.722C1299.84 174.593 1303.94 169.051 1310.19 165.096C1316.49 161.092 1324.3 159.09 1333.63 159.09C1339.68 159.09 1345.37 160.042 1350.69 161.946C1356.06 163.851 1360.41 166.854 1363.73 170.955C1367.05 175.008 1368.71 180.281 1368.71 186.775V242H1347.25V230.574H1346.59C1344.59 234.432 1341.61 237.557 1337.66 239.949C1333.75 242.342 1328.77 243.538 1322.71 243.538ZM1317.15 218.416C1317.15 221.541 1318.27 223.909 1320.52 225.521C1322.81 227.083 1325.69 227.864 1329.16 227.864C1334.14 227.864 1338.22 226.424 1341.39 223.543C1344.61 220.662 1346.22 217.073 1346.22 212.776V204.061C1345.35 204.646 1343.95 205.184 1342.05 205.672C1340.19 206.16 1338.22 206.575 1336.12 206.917C1334.02 207.21 1332.14 207.479 1330.48 207.723C1326.47 208.309 1323.25 209.456 1320.81 211.165C1318.37 212.825 1317.15 215.242 1317.15 218.416ZM1416.9 243.318C1410.65 243.318 1405.01 241.707 1399.98 238.484C1394.96 235.262 1390.98 230.525 1388.05 224.275C1385.12 217.977 1383.65 210.286 1383.65 201.204C1383.65 191.829 1385.17 184.017 1388.19 177.767C1391.22 171.517 1395.25 166.854 1400.28 163.777C1405.31 160.652 1410.8 159.09 1416.76 159.09C1421.35 159.09 1425.18 159.871 1428.26 161.434C1431.33 162.947 1433.82 164.852 1435.73 167.146C1437.63 169.441 1439.07 171.712 1440.05 173.958H1440.71V132.869H1463.41V242H1441.07V228.89H1440.05C1439.02 231.136 1437.53 233.382 1435.58 235.628C1433.63 237.825 1431.11 239.656 1428.04 241.121C1425.01 242.586 1421.3 243.318 1416.9 243.318ZM1441.22 201.131C1441.22 193.807 1439.73 187.972 1436.75 183.626C1433.77 179.28 1429.53 177.107 1424.01 177.107C1418.39 177.107 1414.12 179.329 1411.19 183.772C1408.31 188.216 1406.87 194.002 1406.87 201.131C1406.87 208.211 1408.33 214.021 1411.26 218.562C1414.19 223.055 1418.44 225.301 1424.01 225.301C1429.48 225.301 1433.7 223.079 1436.68 218.636C1439.71 214.192 1441.22 208.357 1441.22 201.131ZM1518.86 243.611C1510.46 243.611 1503.23 241.902 1497.18 238.484C1491.12 235.066 1486.46 230.208 1483.19 223.909C1479.92 217.562 1478.28 210.066 1478.28 201.424C1478.28 193.025 1479.89 185.652 1483.11 179.305C1486.39 172.957 1490.98 168.001 1496.88 164.437C1502.79 160.872 1509.75 159.09 1517.76 159.09C1524.98 159.09 1531.5 160.628 1537.31 163.704C1543.17 166.78 1547.81 171.395 1551.23 177.547C1554.7 183.699 1556.43 191.414 1556.43 200.691V206.844H1500.62C1500.86 213.045 1502.67 217.903 1506.04 221.419C1509.41 224.935 1513.8 226.692 1519.22 226.692C1522.98 226.692 1526.21 225.887 1528.89 224.275C1531.62 222.664 1533.58 220.32 1534.75 217.244L1555.7 218.636C1554.09 226.155 1550.06 232.21 1543.61 236.8C1537.22 241.341 1528.96 243.611 1518.86 243.611ZM1500.77 192.854H1534.68C1534.14 187.679 1532.48 183.577 1529.7 180.55C1526.91 177.522 1523.01 176.009 1517.98 176.009C1512.9 176.009 1508.87 177.596 1505.89 180.77C1502.96 183.895 1501.25 187.923 1500.77 192.854ZM1571.37 242V160.115H1592.9V174.69H1593.93C1595.64 169.856 1598.5 166.048 1602.5 163.265C1606.5 160.481 1611.26 159.09 1616.78 159.09C1622.4 159.09 1627.16 160.506 1631.06 163.338C1635.02 166.121 1637.63 169.905 1638.9 174.69H1639.78C1641.49 169.954 1644.52 166.17 1648.86 163.338C1653.26 160.506 1658.46 159.09 1664.46 159.09C1672.08 159.09 1678.28 161.507 1683.07 166.341C1687.9 171.175 1690.32 178.035 1690.32 186.922V242H1667.61V191.463C1667.61 186.873 1666.39 183.455 1663.95 181.209C1661.56 178.963 1658.55 177.84 1654.94 177.84C1650.84 177.84 1647.62 179.158 1645.27 181.795C1642.98 184.383 1641.83 187.801 1641.83 192.049V242H1619.78V190.877C1619.78 186.922 1618.64 183.772 1616.34 181.429C1614.1 179.036 1611.12 177.84 1607.41 177.84C1603.6 177.84 1600.42 179.231 1597.88 182.015C1595.35 184.749 1594.08 188.387 1594.08 192.928V242H1571.37ZM1722.32 273.201C1719.44 273.201 1716.73 272.981 1714.19 272.542C1711.7 272.103 1709.63 271.565 1707.97 270.931L1713.17 254.012L1713.9 254.158C1717.71 255.232 1720.98 255.477 1723.71 254.891C1726.5 254.305 1728.55 252.156 1729.87 248.445L1731.26 244.344L1701.96 160.115H1725.77L1742.76 220.247H1743.64L1760.7 160.115H1784.73L1752.72 251.448C1750.42 258.089 1746.88 263.362 1742.1 267.269C1737.36 271.224 1730.77 273.201 1722.32 273.201Z" fill="black"/>
</svg>
