<svg width="1788" height="330" viewBox="0 0 1788 330" fill="none" xmlns="http://www.w3.org/2000/svg">
<path d="M264.65 198.25C264.65 211.5 263.86 224.5 262.28 235C261.095 241.75 252.405 247.25 241.74 247.5C185.983 250 130.017 250 74.26 247.5C63.595 247.25 54.51 241.75 53.72 235C52.14 224.5 51.35 211.25 51.35 198.25V140.5C88.48 141.5 125.61 166.75 136.67 176.5L158 195.25L179.33 176.5C190.39 166.5 227.52 141.5 264.65 140.5V198.25Z" fill="#6D28D9"/>
<path d="M145.164 159.832L126.102 154.301C124.102 153.738 122.977 151.645 123.539 149.645L166.195 2.70713C166.758 0.707133 168.852 -0.417867 170.852 0.144633L189.914 5.67588C191.914 6.23838 193.039 8.33213 192.477 10.3321L149.82 157.27C149.227 159.27 147.164 160.426 145.164 159.832ZM109.539 124.77L123.133 110.27C124.57 108.738 124.477 106.301 122.883 104.895L94.5703 79.9884L122.883 55.0821C124.477 53.6759 124.602 51.2384 123.133 49.7071L109.539 35.2071C108.133 33.7071 105.758 33.6134 104.227 35.0509L59.1953 77.2384C57.6016 78.7071 57.6016 81.2384 59.1953 82.7071L104.227 124.926C105.758 126.363 108.133 126.301 109.539 124.77ZM211.789 124.957L256.82 82.7384C258.414 81.2696 258.414 78.7384 256.82 77.2696L211.789 35.0196C210.289 33.6134 207.914 33.6759 206.477 35.1759L192.883 49.6759C191.445 51.2071 191.539 53.6446 193.133 55.0509L221.445 79.9884L193.133 104.895C191.539 106.301 191.414 108.738 192.883 110.27L206.477 124.77C207.883 126.301 210.258 126.363 211.789 124.957Z" fill="#6D28D9"/>
<path d="M317.502 248H296.047L328.737 153.42H354.445L387.072 248H365.681L358.635 226.418H324.484L317.502 248ZM329.562 210.803H353.557L341.94 175.002H341.179L329.562 210.803ZM435.182 249.396C427.904 249.396 421.662 247.852 416.457 244.763C411.252 241.674 407.253 237.378 404.46 231.877C401.709 226.376 400.334 220.028 400.334 212.834C400.334 205.555 401.73 199.165 404.523 193.664C407.359 188.163 411.379 183.868 416.584 180.778C421.789 177.689 427.967 176.145 435.119 176.145C441.297 176.145 446.714 177.266 451.369 179.509C456.024 181.752 459.706 184.904 462.414 188.967C465.122 193.029 466.603 197.811 466.857 203.312H448.322C447.772 199.8 446.397 196.965 444.196 194.807C441.996 192.606 439.076 191.506 435.436 191.506C430.866 191.506 427.206 193.347 424.455 197.028C421.704 200.668 420.329 205.852 420.329 212.58C420.329 219.351 421.683 224.619 424.391 228.386C427.142 232.152 430.824 234.035 435.436 234.035C438.822 234.035 441.678 232.977 444.006 230.861C446.333 228.745 447.772 225.783 448.322 221.975H466.857C466.561 227.391 465.101 232.173 462.477 236.32C459.854 240.425 456.214 243.641 451.559 245.969C446.947 248.254 441.488 249.396 435.182 249.396ZM505.065 249.333C498.294 249.333 492.666 247.577 488.18 244.064C483.737 240.51 481.515 235.22 481.515 228.195C481.515 222.906 482.742 218.758 485.197 215.754C487.694 212.707 490.973 210.485 495.036 209.089C499.098 207.65 503.457 206.719 508.112 206.296C514.29 205.703 518.691 205.09 521.315 204.455C523.981 203.778 525.314 202.297 525.314 200.012V199.694C525.314 196.774 524.383 194.51 522.521 192.902C520.659 191.294 517.972 190.49 514.46 190.49C510.947 190.49 508.07 191.252 505.827 192.775C503.626 194.299 502.166 196.245 501.447 198.615L483.546 195.759C485.239 189.58 488.794 184.777 494.211 181.35C499.67 177.88 506.44 176.145 514.523 176.145C519.77 176.145 524.7 176.97 529.313 178.62C533.968 180.271 537.734 182.873 540.612 186.428C543.49 189.94 544.928 194.51 544.928 200.139V248H526.33V238.098H525.758C524.023 241.441 521.442 244.149 518.014 246.223C514.629 248.296 510.312 249.333 505.065 249.333ZM500.241 227.561C500.241 230.269 501.214 232.321 503.161 233.718C505.15 235.072 507.646 235.749 510.651 235.749C514.967 235.749 518.501 234.501 521.252 232.004C524.045 229.507 525.441 226.397 525.441 222.673V215.119C524.679 215.627 523.473 216.092 521.823 216.516C520.215 216.939 518.501 217.299 516.681 217.595C514.862 217.849 513.232 218.081 511.794 218.293C508.323 218.801 505.531 219.795 503.415 221.276C501.299 222.715 500.241 224.81 500.241 227.561ZM591.896 249.143C586.479 249.143 581.592 247.746 577.233 244.953C572.874 242.16 569.425 238.055 566.886 232.639C564.347 227.18 563.078 220.515 563.078 212.644C563.078 204.519 564.389 197.748 567.013 192.331C569.637 186.914 573.128 182.873 577.487 180.207C581.845 177.499 586.606 176.145 591.769 176.145C595.747 176.145 599.069 176.822 601.735 178.176C604.401 179.488 606.559 181.138 608.209 183.127C609.86 185.116 611.108 187.084 611.954 189.03H612.526V153.42H632.204V248H612.843V236.638H611.954C611.066 238.584 609.775 240.531 608.082 242.478C606.39 244.382 604.21 245.969 601.544 247.238C598.921 248.508 595.704 249.143 591.896 249.143ZM612.97 212.58C612.97 206.232 611.679 201.175 609.098 197.409C606.517 193.643 602.835 191.76 598.053 191.76C593.187 191.76 589.484 193.685 586.945 197.536C584.448 201.387 583.2 206.402 583.2 212.58C583.2 218.716 584.469 223.752 587.008 227.688C589.547 231.581 593.229 233.527 598.053 233.527C602.793 233.527 606.453 231.602 609.035 227.751C611.658 223.9 612.97 218.843 612.97 212.58ZM685.455 249.396C678.177 249.396 671.914 247.915 666.666 244.953C661.419 241.991 657.377 237.78 654.542 232.321C651.707 226.82 650.289 220.324 650.289 212.834C650.289 205.555 651.686 199.165 654.479 193.664C657.314 188.163 661.292 183.868 666.412 180.778C671.533 177.689 677.563 176.145 684.503 176.145C690.766 176.145 696.416 177.478 701.451 180.144C706.529 182.81 710.55 186.809 713.512 192.141C716.516 197.473 718.019 204.159 718.019 212.199V217.531H669.65C669.861 222.906 671.427 227.116 674.347 230.163C677.267 233.21 681.075 234.733 685.773 234.733C689.031 234.733 691.824 234.035 694.152 232.639C696.521 231.242 698.214 229.211 699.23 226.545L717.384 227.751C715.987 234.268 712.496 239.515 706.91 243.493C701.367 247.429 694.215 249.396 685.455 249.396ZM669.777 205.407H699.166C698.701 200.922 697.262 197.367 694.85 194.743C692.438 192.119 689.052 190.808 684.694 190.808C680.293 190.808 676.801 192.183 674.22 194.934C671.681 197.642 670.2 201.133 669.777 205.407ZM736.168 248V177.033H754.83V189.665H755.719C757.2 185.476 759.675 182.175 763.146 179.763C766.616 177.351 770.742 176.145 775.523 176.145C780.39 176.145 784.516 177.372 787.901 179.826C791.329 182.238 793.593 185.518 794.693 189.665H795.455C796.936 185.56 799.56 182.281 803.326 179.826C807.135 177.372 811.642 176.145 816.847 176.145C823.448 176.145 828.823 178.239 832.97 182.429C837.159 186.618 839.254 192.564 839.254 200.266V248H819.576V204.201C819.576 200.223 818.518 197.261 816.402 195.314C814.329 193.368 811.726 192.395 808.595 192.395C805.04 192.395 802.247 193.537 800.216 195.822C798.227 198.065 797.232 201.027 797.232 204.709V248H778.126V203.693C778.126 200.266 777.132 197.536 775.143 195.505C773.196 193.431 770.615 192.395 767.398 192.395C764.098 192.395 761.347 193.601 759.146 196.013C756.946 198.382 755.846 201.535 755.846 205.471V248H736.168ZM872.193 275.041C869.696 275.041 867.348 274.851 865.147 274.47C862.989 274.089 861.191 273.623 859.752 273.073L864.259 258.41L864.893 258.537C868.194 259.468 871.029 259.68 873.399 259.172C875.811 258.664 877.589 256.802 878.731 253.586L879.937 250.031L854.547 177.033H875.177L889.903 229.147H890.665L905.455 177.033H926.275L898.536 256.188C896.547 261.944 893.479 266.514 889.332 269.899C885.227 273.327 879.514 275.041 872.193 275.041Z" fill="#6D28D9"/>
<path d="M336.291 108.333C324.823 108.333 315.661 105.709 308.806 100.462C301.993 95.2145 298.438 87.4915 298.142 77.293H317.502C317.84 82.0326 319.702 85.6084 323.088 88.0205C326.516 90.3903 330.832 91.5752 336.037 91.5752C341.115 91.5752 345.178 90.4961 348.225 88.3379C351.314 86.1797 352.858 83.3656 352.858 79.8955C352.858 76.7217 351.462 74.2884 348.669 72.5957C345.876 70.8607 341.898 69.3796 336.735 68.1523L326.389 65.6133C318.433 63.709 312.149 60.6833 307.536 56.5361C302.966 52.3467 300.681 46.7607 300.681 39.7783C300.681 34.0654 302.225 29.0719 305.314 24.7979C308.404 20.4814 312.635 17.1383 318.01 14.7686C323.426 12.3564 329.584 11.1504 336.481 11.1504C343.506 11.1504 349.642 12.3564 354.89 14.7686C360.137 17.1807 364.221 20.5238 367.141 24.7979C370.103 29.0719 371.626 34.002 371.711 39.5879H352.414C352.076 35.9062 350.51 33.0286 347.717 30.9551C344.924 28.8815 341.136 27.8447 336.354 27.8447C331.488 27.8447 327.743 28.8604 325.119 30.8916C322.495 32.8805 321.184 35.4196 321.184 38.5088C321.184 41.8519 322.644 44.391 325.563 46.126C328.483 47.8187 331.996 49.1517 336.101 50.125L344.543 52.2197C350.044 53.4469 354.932 55.2454 359.206 57.6152C363.48 59.9427 366.844 62.9473 369.299 66.6289C371.753 70.2682 372.98 74.7116 372.98 79.959C372.98 88.6341 369.743 95.5319 363.269 100.652C356.794 105.773 347.801 108.333 336.291 108.333ZM386.057 12.4199H405.734V63.0107H406.813L429.475 36.0332H452.072L425.793 66.8193L453.342 107H430.363L411.066 78.3721L405.734 84.4023V107H386.057V12.4199ZM461.721 107V36.0332H481.398V107H461.721ZM471.56 26.9561C468.64 26.9561 466.122 25.9827 464.006 24.0361C461.932 22.0895 460.896 19.7409 460.896 16.9902C460.896 14.2396 461.932 11.9121 464.006 10.0078C466.122 8.0612 468.64 7.08789 471.56 7.08789C474.479 7.08789 476.976 8.0612 479.05 10.0078C481.166 11.9121 482.224 14.2396 482.224 16.9902C482.224 19.7409 481.166 22.0895 479.05 24.0361C476.976 25.9827 474.479 26.9561 471.56 26.9561ZM516.818 12.4199V107H497.141V12.4199H516.818ZM552.238 12.4199V107H532.561V12.4199H552.238ZM603.4 108.333C591.932 108.333 582.771 105.709 575.915 100.462C569.102 95.2145 565.547 87.4915 565.251 77.293H584.611C584.95 82.0326 586.812 85.6084 590.197 88.0205C593.625 90.3903 597.941 91.5752 603.146 91.5752C608.225 91.5752 612.287 90.4961 615.334 88.3379C618.423 86.1797 619.968 83.3656 619.968 79.8955C619.968 76.7217 618.571 74.2884 615.778 72.5957C612.985 70.8607 609.007 69.3796 603.845 68.1523L593.498 65.6133C585.542 63.709 579.258 60.6833 574.646 56.5361C570.075 52.3467 567.79 46.7607 567.79 39.7783C567.79 34.0654 569.335 29.0719 572.424 24.7979C575.513 20.4814 579.745 17.1383 585.119 14.7686C590.536 12.3564 596.693 11.1504 603.591 11.1504C610.616 11.1504 616.752 12.3564 621.999 14.7686C627.246 17.1807 631.33 20.5238 634.25 24.7979C637.212 29.0719 638.736 34.002 638.82 39.5879H619.523C619.185 35.9062 617.619 33.0286 614.826 30.9551C612.033 28.8815 608.246 27.8447 603.464 27.8447C598.597 27.8447 594.852 28.8604 592.229 30.8916C589.605 32.8805 588.293 35.4196 588.293 38.5088C588.293 41.8519 589.753 44.391 592.673 46.126C595.593 47.8187 599.105 49.1517 603.21 50.125L611.652 52.2197C617.154 53.4469 622.041 55.2454 626.315 57.6152C630.59 59.9427 633.954 62.9473 636.408 66.6289C638.863 70.2682 640.09 74.7116 640.09 79.959C640.09 88.6341 636.853 95.5319 630.378 100.652C623.903 105.773 614.911 108.333 603.4 108.333ZM672.844 65.9941V107H653.166V12.4199H672.209V48.665H673.098C674.706 44.4756 677.287 41.1748 680.842 38.7627C684.439 36.3506 688.924 35.1445 694.299 35.1445C701.662 35.1445 707.587 37.5143 712.072 42.2539C716.558 46.9935 718.801 53.5316 718.801 61.8682V107H699.187V65.3594C699.187 60.9583 698.086 57.5518 695.886 55.1396C693.685 52.6852 690.533 51.458 686.428 51.458C682.45 51.458 679.191 52.7487 676.652 55.3301C674.113 57.8691 672.844 61.4238 672.844 65.9941ZM754.792 108.333C748.021 108.333 742.393 106.577 737.907 103.064C733.464 99.5098 731.242 94.2201 731.242 87.1953C731.242 81.9056 732.469 77.7585 734.924 74.7539C737.421 71.707 740.7 69.4854 744.763 68.0889C748.825 66.6501 753.184 65.7191 757.839 65.2959C764.017 64.7035 768.418 64.0898 771.042 63.4551C773.708 62.778 775.041 61.2969 775.041 59.0117V58.6943C775.041 55.7744 774.11 53.5104 772.248 51.9023C770.386 50.2943 767.699 49.4902 764.187 49.4902C760.674 49.4902 757.797 50.252 755.554 51.7754C753.353 53.2988 751.893 55.2454 751.174 57.6152L733.273 54.7588C734.966 48.5804 738.521 43.7773 743.938 40.3496C749.396 36.8796 756.167 35.1445 764.25 35.1445C769.497 35.1445 774.427 35.9697 779.04 37.6201C783.695 39.2705 787.461 41.873 790.339 45.4277C793.216 48.9401 794.655 53.5104 794.655 59.1387V107H776.057V97.0977H775.485C773.75 100.441 771.169 103.149 767.741 105.223C764.356 107.296 760.039 108.333 754.792 108.333ZM749.968 86.5605C749.968 89.2689 750.941 91.3213 752.888 92.7178C754.877 94.0719 757.373 94.749 760.378 94.749C764.694 94.749 768.228 93.5007 770.979 91.0039C773.771 88.5072 775.168 85.3968 775.168 81.6729V74.1191C774.406 74.627 773.2 75.0924 771.55 75.5156C769.942 75.9388 768.228 76.2985 766.408 76.5947C764.589 76.8486 762.959 77.0814 761.521 77.293C758.05 77.8008 755.257 78.7952 753.142 80.2764C751.026 81.7152 749.968 83.8099 749.968 86.5605ZM810.461 107V36.0332H829.504V48.4746H830.266C831.535 44.0736 833.693 40.7516 836.74 38.5088C839.787 36.2236 843.299 35.0811 847.277 35.0811C848.251 35.0811 849.309 35.1445 850.451 35.2715C851.594 35.3984 852.588 35.5677 853.435 35.7793V53.1719C852.504 52.8757 851.213 52.6429 849.562 52.4736C847.954 52.262 846.473 52.1562 845.119 52.1562C840.803 52.1562 837.227 53.5316 834.392 56.2822C831.556 58.9906 830.139 62.5241 830.139 66.8828V107H810.461ZM895.964 108.396C888.685 108.396 882.422 106.915 877.175 103.953C871.927 100.991 867.886 96.7803 865.051 91.3213C862.215 85.82 860.798 79.3242 860.798 71.834C860.798 64.5553 862.194 58.1654 864.987 52.6641C867.823 47.1628 871.8 42.8675 876.921 39.7783C882.041 36.6891 888.072 35.1445 895.012 35.1445C901.275 35.1445 906.924 36.4775 911.96 39.1436C917.038 41.8096 921.058 45.8086 924.021 51.1406C927.025 56.4727 928.527 63.1589 928.527 71.1992V76.5312H880.158C880.37 81.9056 881.936 86.1162 884.855 89.1631C887.775 92.21 891.584 93.7334 896.281 93.7334C899.54 93.7334 902.333 93.0352 904.66 91.6387C907.03 90.2422 908.723 88.2109 909.738 85.5449L927.893 86.751C926.496 93.2679 923.005 98.5153 917.419 102.493C911.875 106.429 904.724 108.396 895.964 108.396ZM880.285 64.4072H909.675C909.209 59.9215 907.771 56.3669 905.358 53.7432C902.946 51.1195 899.561 49.8076 895.202 49.8076C890.801 49.8076 887.31 51.1829 884.729 53.9336C882.189 56.6419 880.708 60.1331 880.285 64.4072Z" fill="#6D28D9"/>
</svg>
